<?xml version="1.0" encoding="utf-8"?>
<!-- Generator: Adobe Illustrator 21.1.0, SVG Export Plug-In . SVG Version: 6.00 Build 0)  -->
<svg version="1.1" id="Bold" xmlns="http://www.w3.org/2000/svg" xmlns:xlink="http://www.w3.org/1999/xlink" x="0px" y="0px"
	 viewBox="0 0 512 512" style="enable-background:new 0 0 512 512;" xml:space="preserve">
<style type="text/css">
	.st0{fill:#FFFFFF;}
</style>
<path class="st0" d="M256,430.5V512c235.8-117.9,224.8-293.2,224-291C480,98.9,379.8,0,256.1,0c0,0-0.1,0-0.1,0v0c0,0-0.1,0-0.1,0
	C132.2,0,32,98.9,32,221v0.1C32,336.9,139,430.5,256,430.5z M349.4,126.9c22.6,22.3,36.5,53.6,36.5,87.6c0,77.7-70.1,83.7-89.6,43.9
	c-31,46.4-110.2,22.2-110.2-41.9c0.4-2.2-1.4-28.3,18.9-48.3c21.8-22.7,61-26.6,82.8-0.9h2.1v-13.1h28V236
	c0,10.2,5.8,20.9,18.3,20.9c26.4,0,25.5-53.8,14.1-80.9C306,77.3,155.3,107,155.3,214.7c0,78.5,85.3,119.7,144.1,88.7l10.3,25.6
	c-80.9,36.9-183.3-18-183.3-113.7C126.4,101,270.1,48.4,349.4,126.9L349.4,126.9z"/>
<path d="M329.2,144.8L329.2,144.8L329.2,144.8L329.2,144.8z"/>
<path class="st0" d="M252.5,179.2L252.5,179.2c-18.8,0-36.5,13.1-36.5,37.5c0,50.1,73.1,50,73.1,0C289,193.3,272,179.2,252.5,179.2z
	"/>
<path d="M266.6,251.5l-0.2,0.1l0,0L266.6,251.5z"/>
</svg>
