<?xml version="1.0" encoding="utf-8"?>
<!-- Generator: Adobe Illustrator 21.1.0, SVG Export Plug-In . SVG Version: 6.00 Build 0)  -->
<svg version="1.1" id="Layer_1" xmlns="http://www.w3.org/2000/svg" xmlns:xlink="http://www.w3.org/1999/xlink" x="0px" y="0px"
	 viewBox="0 0 512 512" style="enable-background:new 0 0 512 512;" xml:space="preserve">
<style type="text/css">
	.st0{fill:#FFFFFF;}
</style>
<path class="st0" d="M366,250.3c-5.5,0-10,4.4-10,10c0,5.5,4.4,10,10,10c5.5,0,10-4.5,10-10C376,254.8,371.5,250.3,366,250.3z"/>
<path class="st0" d="M126,239.7C126,239.7,126,239.7,126,239.7c-16.6,0-30,13.4-30.1,29.9c0,5.5,4.5,10,10,10h0c5.5,0,10-4.5,10-10
	c0-5.5,4.5-10,10-10h0c5.5,0,10,4.5,10,10c0,5.5,4.5,10,10,10h0c5.5,0,10-4.5,10-10C156,253.2,142.6,239.7,126,239.7z"/>
<path class="st0" d="M296.9,120.7L296.9,120.7c5.5,0,10,4.4,10,10c0,4.6-3.2,8.6-7.7,9.7c-0.7-0.2-3.8-0.1-4.5,0
	c-3.1-0.7-5.8-2.8-7.1-5.9c-2.1-5.1-8-7.5-13.1-5.4c-5.1,2.1-7.5,8-5.4,13.1c3.4,8,9.9,14,17.8,16.7l0,11.1c0,5.5,4.5,10,10,10h0
	c5.5,0,10-4.5,10-10l0-11.3c12-4.3,19.9-15.7,19.9-28.2c0-16.6-13.3-30-29.9-30.1h0c-5.5,0-10-4.5-10-10c0-5.5,4.5-10,10-10h0
	c4,0,7.6,2.4,9.2,6.1c2.1,5.1,8,7.5,13.1,5.3c5.1-2.1,7.5-8,5.3-13.1c-3.3-7.9-9.9-13.9-17.7-16.6l0-12.3c0-5.5-4.4-10-9.9-10
	c0,0,0,0,0,0c-5.5,0-10,4.5-10,10l0,12.2c-11.4,4-20,15-20,28.2C266.9,107,280.2,120.7,296.9,120.7z"/>
<path class="st0" d="M502,223c-5.5,0-10,4.5-10,10c0,25.7-23.8,45.5-47.8,49.3c-6.6-41.3-31.3-76.8-64.1-100.9
	c16.7-19.7,26.2-45,26.3-71c0.1-29.4-11.3-57.1-32-77.9C353.6,11.6,326,0.1,296.6,0c-0.1,0-0.2,0-0.3,0
	c-60.5,0-109.9,49.2-110,109.9c0,12.4,1.9,24.4,5.9,35.8c-12.1,2.7-23.8,6.3-35.1,10.7c-15.9-23-55.3-36.8-80.8-36.9c0,0,0,0,0,0
	c-3.1,0-6,1.4-7.9,3.9c-1.9,2.4-2.6,5.6-1.8,8.6l18.5,72.7c-11.6,12.9-21.9,30-29.2,48.3H30c-16.7,0-30,12.9-30,29.4v40
	C0,338.9,13,352,29.8,352h25.9c10.5,26.2,28.4,50.5,50.3,68v82c0,5.5,4.5,10,10,10h39.4h0.1c16.4,0,30.5-13.5,30.5-30.2v-23.3
	c19.3,4.9,39.2,7.4,59.5,7.4h0.6c13.2,0,26.1-1,38.9-3.1v19.2c0,16.5,13.6,29.9,30.4,29.9H356c5.5,0,10-4.5,10-10v-67.7
	c49.3-29.6,79.8-79.3,79.9-130.9c0-0.4,0-0.8,0-1.2c34.6-4.7,66.1-33.5,66.1-69.3C512,227.5,507.5,223,502,223z M296.3,20h0.2
	c24,0.1,46.6,9.5,63.6,26.6c17,17.1,26.3,39.7,26.2,63.8c-0.1,50.3-41.1,89.8-90,89.8c-0.1,0-0.1,0-0.2,0
	c-48.8-0.1-89.9-39.8-89.8-90.2C206.5,60.3,246.8,20,296.3,20z M351.1,419.8c-3.2,1.8-5.1,5.1-5.1,8.7V492h-30.6
	c-5.7,0-10.5-4.5-10.4-9.9c0-24.2,0-30.4,0-51.3c0-5.5-4.5-10-10-10s-10,4.5-10,10v11.7c-12.9,2.3-25.7,3.4-38.9,3.4
	c-0.2,0-0.4,0-0.5,0c-20.3-0.1-40.3-2.8-59.5-8.1v-12.5c0-5.5-4.5-10-10-10s-10,4.5-10,10v56.5c0,5.5-5,10.2-10.6,10.2c0,0,0,0,0,0
	H126v-76.9c0-3.2-1.5-6.1-4-8c-22.1-16.5-40.8-42-49.9-68.3c-1.4-4-5.2-6.7-9.4-6.7H29.8c-5.6,0-9.8-4.1-9.8-9.6v-40
	c0-5.5,4.4-9.4,9.9-9.4h0h32.8c4.2,0,8-2.7,9.4-6.7c7.1-20.2,18.4-39.1,31-51.8c2.5-2.5,3.5-6.1,2.6-9.5l-16.3-64.2
	c22.5,4.1,48.5,17.3,53.7,31.7c2,5.4,8.1,8.1,13.5,5.7c13.9-6.2,28.6-10.8,44-13.9c8.1,14.3,19.3,26.5,32.8,36
	c-13.7,0.9-27.2,3.3-40.2,7.1c-5.3,1.6-8.3,7.1-6.8,12.4c1.6,5.3,7.1,8.3,12.4,6.8c14.9-4.4,30.7-6.7,46.7-6.7h0.5
	c29.6,0.1,61.2,8.1,85.7,25.1c4.5,3.2,10.8,2,13.9-2.5c3.2-4.5,2-10.8-2.5-13.9c-6.3-4.4-13.1-8.3-20.3-11.8
	c15.5-3.9,30.1-11.1,42.7-21.3c37.5,26.3,60.4,67,60.3,107.8C425.8,349.5,397.1,394.1,351.1,419.8z"/>
</svg>
