<?xml version="1.0" encoding="utf-8"?>
<!-- Generator: Adobe Illustrator 21.1.0, SVG Export Plug-In . SVG Version: 6.00 Build 0)  -->
<svg version="1.1" id="Capa_1" xmlns="http://www.w3.org/2000/svg" xmlns:xlink="http://www.w3.org/1999/xlink" x="0px" y="0px"
	 viewBox="0 0 512 512" style="enable-background:new 0 0 512 512;" xml:space="preserve">
<style type="text/css">
	.st0{fill:#FFFFFF;}
</style>
<path class="st0" d="M469.2,260.1c8.1-9.2,7.6-23.1-1-31.8c-4.6-4.6-10.8-7.1-17.3-6.8c-6.5,0.2-12.5,3.1-16.8,8l0,0l-83.9,96.9
	h-88.9l-47-178.1c33.8-8.3,55.5-8.5,60.5-6.5c0.1,0.1,0.1,0.1,0.2,0.2c0.1,0.2,0.2,0.4,0.3,0.5c0.1,0.2,0.2,0.2,0.3,0.4
	c0.1,0.2,0.3,0.3,0.4,0.4c0.1,0.1,0.2,0.3,0.4,0.4c0.3,0.3,0.7,0.6,1.1,0.8l0.1,0c1.1,0.7,2.5,1.1,3.8,1.2c0.6,0,1.2-0.1,1.8-0.2
	c3.9-1,6.3-4.9,5.4-8.8c0-0.1,0-0.1,0-0.2c0.4-2.4,9-10.6,26.9-15.4s29.5-2,30.9-0.5c0,0.2,0.2,0.3,0.2,0.4c1.6,3.8,6,5.6,9.8,4
	c3.3-1.4,5.1-4.8,4.5-8.3l0,0c-8.4-31.3-32.3-56.2-67.3-70.3c-34.6-13-72.3-15.2-108.2-6.3l-2-7.5c-1.1-4-5.2-6.4-9.2-5.3
	c-4,1.1-6.4,5.2-5.3,9.2l2,7.5c-35.5,10.2-67.1,31-90.5,59.6c-23.1,29.5-31.3,62.7-23.3,93.8c0.1,0.3,0.1,0.5,0.1,0.7
	c0.9,3.3,3.9,5.7,7.3,5.7c0.6,0,1.2-0.1,1.8-0.2c3.9-0.9,6.3-4.9,5.4-8.8c0-0.1,0-0.1,0-0.2c0.4-2.4,9-10.6,26.9-15.4
	s29.5-2,30.9-0.5c0.3,0.9,0.7,1.7,1.2,2.5c0.2,0.2,0.4,0.4,0.6,0.6c0.4,0.5,0.9,0.9,1.4,1.2c0.3,0.2,0.5,0.3,0.8,0.4
	c0.8,0.4,1.7,0.6,2.6,0.7c0.2,0,0.4,0.1,0.6,0.1c0.7,0,1.3-0.1,1.9-0.3c0.9-0.3,1.7-0.7,2.5-1.2c0.2-0.2,0.4-0.4,0.6-0.6
	c0.4-0.4,0.8-0.9,1.2-1.3c0.2-0.3,0.3-0.6,0.5-0.9c0.2-0.5,0.4-1,0.5-1.6c0.1-0.3,0.1-0.7,0.2-1c0-0.2,0.1-0.4,0.1-0.6
	c3.4-4.2,22.4-14.9,55.6-24.5l46,174.1H129.1c-1.3,0-2.6,0.4-3.7,1L49,371.8c-11.5,6.7-15.4,21.6-8.7,33.1s21.6,15.4,33.1,8.7
	l61.5-35.9l-49.7,87.1c-2.1,3.6-0.8,8.2,2.7,10.2c1.1,0.7,2.4,1,3.8,1h29.9c2.7,0,5.2-1.4,6.5-3.7l57.7-101h71.8l22.4,85
	c0.9,3.3,3.8,5.6,7.2,5.6c0.6,0,1.3-0.1,1.9-0.3c4-1.1,6.4-5.2,5.3-9.1l-21.4-81.1h53.7l57.7,101c1.3,2.3,3.8,3.7,6.5,3.7h29.9
	c4.1,0,7.5-3.3,7.5-7.5c0-1.3-0.3-2.6-1-3.8l-54.4-95.2c0.4-0.3,0.8-0.5,1.2-0.9L469.2,260.1z M287.9,60.3
	c21.8,7.9,40,23.3,51.6,43.4c-9.4-0.6-18.8,0.4-27.9,3c-9.7,2.4-18.8,6.6-26.9,12.3c-0.5,0.4-0.9,0.7-1.3,1.1
	C273.5,91,254,66.2,228.1,49.8C248.5,49.3,268.9,52.9,287.9,60.3z M94.8,164.7c-9.1,2.3-17.8,6.2-25.6,11.4
	c-0.1-23.2,8.1-45.7,23-63.5c12.7-15.8,28.4-29,46.3-38.8c-3.3,5.8-6,11.8-8.1,18.1c-7.1,22.7-8.6,46.8-4.3,70.1
	C115.5,160.9,104.9,161.8,94.8,164.7z M140.9,160.3c-4-21.2-2.8-43,3.6-63.6c7.3-21.7,20.6-36.1,37.4-40.6c32.9-8.8,70.2,22,87.7,70
	c-12.4-1.2-32.7,0.5-66.4,9.5c-17.7,4.5-34.9,10.7-51.4,18.5C148.1,156,144.4,158.1,140.9,160.3z M117.3,461h-12.7l51.3-89.8h12.7
	L117.3,461z M181.5,356.3h-37.4c-1.3,0-2.6,0.4-3.7,1l-74.4,43.4c-4.4,2.6-10,1.1-12.6-3.3c-2.6-4.4-1.1-10,3.3-12.6l74.5-43.5
	h118.6l3.9,15H181.5z M265.2,341.3h88.4c2.2,0,4.2-0.9,5.7-2.6l86.2-99.4c1.5-1.8,3.7-2.8,6-2.9c4.6-0.2,8.4,3.4,8.6,8
	c0.1,2.1-0.7,4.2-2.1,5.8l-92.8,106.1h-96L265.2,341.3z M395.4,461L344,371.2h12.7l51.3,89.8H395.4z"/>
</svg>
