<?xml version="1.0" encoding="utf-8"?>
<!-- Generator: Adobe Illustrator 21.1.0, SVG Export Plug-In . SVG Version: 6.00 Build 0)  -->
<svg version="1.1" id="Capa_1" xmlns="http://www.w3.org/2000/svg" xmlns:xlink="http://www.w3.org/1999/xlink" x="0px" y="0px"
	 viewBox="0 0 512 512" style="enable-background:new 0 0 512 512;" xml:space="preserve">
<style type="text/css">
	.st0{fill:#FFFFFF;}
</style>
<g>
	<g>
		<path class="st0" d="M477.9,8.5H34.1C15.3,8.5,0,23.9,0,42.7v281.6c0,4.7,3.8,8.5,8.5,8.5h494.9c4.7,0,8.5-3.8,8.5-8.5V42.7
			C512,23.9,496.7,8.5,477.9,8.5z M494.9,315.7H17.1V42.7c0-9.4,7.7-17.1,17.1-17.1h443.7c9.4,0,17.1,7.7,17.1,17.1V315.7z"/>
	</g>
</g>
<g>
	<g>
		<path class="st0" d="M503.5,315.7H8.5c-4.7,0-8.5,3.8-8.5,8.5v42.7c0,18.8,15.3,34.1,34.1,34.1h443.7c18.8,0,34.1-15.3,34.1-34.1
			v-42.7C512,319.6,508.2,315.7,503.5,315.7z M494.9,366.9c0,9.4-7.7,17.1-17.1,17.1H34.1c-9.4,0-17.1-7.7-17.1-17.1v-34.1h477.9
			L494.9,366.9L494.9,366.9z"/>
	</g>
</g>
<g>
	<g>
		<path class="st0" d="M281.6,349.9h-51.2c-4.7,0-8.5,3.8-8.5,8.5s3.8,8.5,8.5,8.5h51.2c4.7,0,8.5-3.8,8.5-8.5
			S286.3,349.9,281.6,349.9z"/>
	</g>
</g>
<g>
	<g>
		<path class="st0" d="M469.3,42.7H42.7c-4.7,0-8.5,3.8-8.5,8.5v273.1c0,4.7,3.8,8.5,8.5,8.5h426.7c4.7,0,8.5-3.8,8.5-8.5V51.2
			C477.9,46.5,474,42.7,469.3,42.7z M460.8,315.7H51.2v-256h409.6L460.8,315.7L460.8,315.7z"/>
	</g>
</g>
<g>
	<g>
		<path class="st0" d="M366.9,452.3H145.1c-14.1,0-25.6,11.5-25.6,25.6s11.5,25.6,25.6,25.6h221.9c14.1,0,25.6-11.5,25.6-25.6
			S381,452.3,366.9,452.3z M366.9,486.4H145.1c-4.7,0-8.5-3.8-8.5-8.5s3.8-8.5,8.5-8.5h221.9c4.7,0,8.5,3.8,8.5,8.5
			S371.6,486.4,366.9,486.4z"/>
	</g>
</g>
<g>
	<g>
		<path class="st0" d="M349.9,452.3c-28.3,0-42.7-20.1-42.7-59.7c0-4.7-3.8-8.5-8.5-8.5h-85.3c-4.7,0-8.5,3.8-8.5,8.5
			c0,39.6-14.4,59.7-42.7,59.7c-4.7,0-8.5,3.8-8.5,8.5s3.8,8.5,8.5,8.5h187.7c4.7,0,8.5-3.8,8.5-8.5S354.6,452.3,349.9,452.3z
			 M203.7,452.3c10.5-11.6,16.7-29,17.9-51.2h68.7c1.2,22.2,7.4,39.6,17.9,51.2H203.7z"/>
	</g>
</g>
<g>
	<g>
		<path class="st0" d="M407.8,260l-20.6-20.6l11.5-11.5c2.1-2.1,3-5.2,2.2-8.1c-0.7-2.9-2.9-5.2-5.8-6.1l-85.3-25.6
			c-3-0.9-6.3-0.1-8.5,2.1c-2.2,2.2-3,5.5-2.1,8.5l25.6,85.3c0.9,2.9,3.2,5.1,6.1,5.8c2.9,0.7,6-0.1,8.1-2.2l12.1-12.1l20.6,20.6
			c1.6,1.6,3.8,2.5,6,2.5s4.4-0.9,6-2.5l24.1-24.1C411.1,268.7,411.1,263.3,407.8,260z M377.6,278.1l-18.8-18.8
			c-2.2-2.2-5-3.3-7.9-3.3c-2.9,0-5.7,1.1-7.9,3.3l-6.2,6.2L320,209l56.5,16.9l-6.6,6.6c-1.8,1.8-2.8,4.3-2.8,6.8c0,2.6,1,5,2.8,6.8
			l19.8,19.8L377.6,278.1z"/>
	</g>
</g>
<g>
	<g>
		<path class="st0" d="M358.4,76.8H119.5c-4.7,0-8.5,3.8-8.5,8.5V128c0,4.7,3.8,8.5,8.5,8.5h238.9c4.7,0,8.5-3.8,8.5-8.5V85.3
			C366.9,80.6,363.1,76.8,358.4,76.8z M349.9,119.5H128V93.9h221.9V119.5z"/>
	</g>
</g>
<g>
	<g>
		<path class="st0" d="M221.9,170.7h-68.3c-4.7,0-8.5,3.8-8.5,8.5v34.1c0,4.7,3.8,8.5,8.5,8.5h68.3c4.7,0,8.5-3.8,8.5-8.5v-34.1
			C230.4,174.5,226.6,170.7,221.9,170.7z M213.3,204.8h-51.2v-17.1h51.2V204.8z"/>
	</g>
</g>
<g>
	<g>
		<path class="st0" d="M358.4,76.8H119.5c-4.7,0-8.5,3.8-8.5,8.5v162.1c0,4.7,3.8,8.5,8.5,8.5h203.1c2.7,0,5.2-1.3,6.8-3.4
			c1.6-2.2,2.1-5,1.3-7.6L320,209l36,10.8c2.6,0.8,5.4,0.3,7.5-1.3c2.2-1.6,3.4-4.1,3.4-6.8V85.3C366.9,80.6,363.1,76.8,358.4,76.8z
			 M349.9,200.1l-40.2-12c-3-0.9-6.3-0.1-8.5,2.1c-2.2,2.2-3,5.5-2.1,8.5l12.1,40.2H128V93.9h221.9V200.1z"/>
	</g>
</g>
</svg>
